<svg width="109" height="122" viewBox="0 0 109 122" fill="none" xmlns="http://www.w3.org/2000/svg">
<path d="M92.4258 25.0106C88.117 25.0147 83.9859 26.4532 80.9399 29.0106C77.8932 31.568 76.1794 35.0353 76.1753 38.6518V72.6292C76.2209 75.0607 75.6902 77.4751 74.6132 79.7325C73.5362 81.9898 71.9353 84.0445 69.9031 85.7776C67.8705 87.5107 65.4478 88.887 62.7757 89.8263C60.1036 90.7657 57.2354 91.2494 54.3384 91.2494C51.4414 91.2494 48.5733 90.7657 45.9012 89.8263C43.2291 88.887 40.8063 87.5107 38.7741 85.7776C36.7418 84.0445 35.1406 81.9898 34.0637 79.7325C32.9869 77.4751 32.4558 75.0607 32.5016 72.6292V38.6518C32.5016 35.0343 30.7894 31.565 27.7418 29.007C24.6942 26.4491 20.5607 25.012 16.2508 25.012C11.9408 25.012 7.80735 26.4491 4.75973 29.007C1.71212 31.565 0 35.0343 0 38.6518V76.2268C-2.12664e-07 82.216 1.4055 88.1469 4.13626 93.6803C6.86703 99.2138 10.8696 104.241 15.9154 108.477C20.9611 112.712 26.9514 116.071 33.544 118.363C40.1366 120.655 47.2026 121.835 54.3384 121.835C61.4743 121.835 68.5403 120.655 75.133 118.363C81.7257 116.071 87.7156 112.712 92.7612 108.477C97.8074 104.241 101.81 99.2138 104.54 93.6803C107.271 88.1469 108.677 82.216 108.677 76.2268V38.6518C108.672 35.0353 106.959 31.5679 103.912 29.0106C100.866 26.4532 96.7345 25.0147 92.4258 25.0106ZM101.567 76.224C101.567 86.7375 96.5909 96.82 87.734 104.254C78.877 111.688 66.8642 115.864 54.3384 115.864C41.8126 115.864 29.7998 111.688 20.9428 104.254C12.0857 96.82 7.10978 86.7375 7.10978 76.224V38.6518C7.1306 36.6285 8.10277 34.6939 9.81483 33.2693C11.5268 31.8447 13.84 31.0454 16.2508 31.0454C18.6616 31.0454 20.9747 31.8447 22.6867 33.2693C24.3987 34.6939 25.371 36.6285 25.3918 38.6518V72.6292C25.3918 79.0729 28.4415 85.2528 33.87 89.8092C39.2986 94.3656 46.6613 96.925 54.3384 96.925C62.0156 96.925 69.3785 94.3656 74.8071 89.8092C80.235 85.2528 83.2851 79.0729 83.2851 72.6292V38.6518C83.2851 36.617 84.2478 34.6655 85.9623 33.2267C87.6768 31.7878 90.0016 30.9795 92.4258 30.9795C94.8506 30.9795 97.1754 31.7878 98.8899 33.2267C100.604 34.6655 101.567 36.617 101.567 38.6518V76.224Z" fill="url(#paint0_linear_80_111)"/>
<path d="M50.7839 31.9648V71.3009C50.7839 72.0924 51.1584 72.8513 51.8251 73.411C52.4917 73.9706 53.3959 74.2847 54.3388 74.2847C55.2816 74.2847 56.1858 73.9706 56.8524 73.411C57.5191 72.8513 57.8937 72.0924 57.8937 71.3009V31.9648C62.4835 31.2226 66.5788 29.0711 69.3802 25.9306C72.1813 22.79 73.4876 18.8858 73.0433 14.9803C72.599 11.0749 70.4368 7.44867 66.978 4.80963C63.5193 2.17062 59.0129 0.708336 54.3388 0.708336C49.6646 0.708336 45.1582 2.17062 41.6996 4.80963C38.2409 7.44867 36.0784 11.0749 35.6343 14.9803C35.1901 18.8858 36.4962 22.79 39.2975 25.9306C42.0987 29.0711 46.1941 31.2226 50.7839 31.9648ZM54.3388 6.68221C56.6489 6.68221 58.9073 7.2572 60.8281 8.33448C62.749 9.41177 64.2461 10.9429 65.1301 12.7344C66.0142 14.5258 66.2455 16.4971 65.7948 18.3988C65.344 20.3006 64.2314 22.0474 62.5978 23.4185C60.9642 24.7895 58.8829 25.7232 56.6171 26.1014C54.3512 26.4797 52.0027 26.2854 49.8684 25.5433C47.7341 24.8012 45.9099 23.5445 44.6265 21.9322C43.3431 20.3199 42.6582 18.4245 42.6583 16.4854C42.6619 13.8863 43.8937 11.3944 46.0835 9.55664C48.2732 7.71883 51.2421 6.68506 54.3388 6.68221Z" fill="url(#paint1_linear_80_111)"/>
<defs>
<linearGradient id="paint0_linear_80_111" x1="0" y1="73.423" x2="108.677" y2="73.423" gradientUnits="userSpaceOnUse">
<stop stop-color="#EC441E"/>
<stop offset="1" stop-color="#EE2A4A"/>
</linearGradient>
<linearGradient id="paint1_linear_80_111" x1="35.5492" y1="37.4965" x2="73.1283" y2="37.4965" gradientUnits="userSpaceOnUse">
<stop stop-color="#EC441E"/>
<stop offset="1" stop-color="#EE2A4A"/>
</linearGradient>
</defs>
</svg>
